<?xml version="1.0" encoding="utf-8"?>
<!-- Generator: Adobe Illustrator 26.0.1, SVG Export Plug-In . SVG Version: 6.00 Build 0)  -->
<svg version="1.1" id="Layer_1" xmlns="http://www.w3.org/2000/svg" xmlns:xlink="http://www.w3.org/1999/xlink" x="0px" y="0px"
	 viewBox="0 0 1000 208" style="enable-background:new 0 0 1000 208;" xml:space="preserve">
<style type="text/css">
	.st0{fill:#325CFD;}
	.st1{fill:#039A63;}
	.st2{fill:#F48133;}
</style>
<g>
	<g>
		<g>
			<path d="M701.15,161.15v44.57h-29.01V96.6c0-13.74,0-22.98-0.24-29.43h27.91c0.46,2.27,0.91,7.34,0.91,11.14
				c3.97-6.57,11.3-12.88,28.19-12.88c23.31,0,36.74,16.24,36.74,50.94c0,39.81-16.31,54.54-40.56,54.54
				C712.05,170.91,704.77,166.64,701.15,161.15z M736.36,117.46c0-24.35-6.27-32.04-18.56-32.04c-14.62,0-17.57,11.22-17.57,31.12
				c0,23.3,1.5,34.39,17.36,34.39C730.29,150.92,736.36,139.93,736.36,117.46z"/>
		</g>
	</g>
	<g>
		<path d="M364.17,54.14c0-8.47,0-16.64,0-24.94c35.11,0,70.13,0,105.34,0c0-8.9,0-17.68,0-26.56c10.03,0,19.87,0,29.9,0
			c0,8.73,0,17.5,0,26.46c86.08,0,156.33,0,242.32,0c0,8.39,0,16.6,0,24.93c-85.91,0-156.12,0-242.23,0c0,0.72,0,1.31,0,1.91
			c0,23.15-0.09,46.3,0.07,69.45c0.03,4.7,0.72,9.41,3.2,13.71c1.87,3.24,4.82,4.88,8.24,5.3c3.65,0.45,7.42,0.44,10.98-1.18
			c3.07-1.39,5.3-3.63,6.47-6.55c1.16-2.92,1.97-6.07,2.29-9.19c0.45-4.38,0.39-8.82,0.4-13.23c0.01-2.35-0.29-4.7-0.45-7.17
			c9.57,0,18.87,0,28.45,0c-0.14,1.92-0.27,3.75-0.4,5.59c-0.02,0.28-0.05,0.56-0.06,0.85c-0.12,5.38-0.04,10.77-0.4,16.14
			c-0.52,7.87-1.66,15.67-5.26,22.85c-4.79,9.56-12.73,15.24-23.25,17.62c-6.34,1.43-12.78,1.68-19.2,1.29
			c-7.23-0.43-14.31-1.79-20.82-5.21c-7.43-3.89-12.5-9.82-15.65-17.36c-2.61-6.24-3.97-12.78-4.21-19.53
			c-0.1-2.77-0.32-5.53-0.33-8.29c-0.03-21.56-0.02-43.11-0.02-64.67c0-0.68,0-1.35,0-2.22C434.42,54.14,399.35,54.14,364.17,54.14z
			"/>
	</g>
	<path class="st0" d="M309.64,169.02c-8.92,0-17.71,0-26.55,0c-0.18-3.81-0.36-7.55-0.55-11.42c-1.79,2.04-3.3,4.1-5.14,5.8
		c-4.72,4.37-10.39,7.03-16.84,7.7c-3.85,0.4-7.77,0.56-11.63,0.32c-4.12-0.27-8.15-1.31-12.02-2.87
		c-6.12-2.47-11.23-6.31-15.47-11.18c-5.29-6.08-8.57-13.23-10.53-20.95c-1.28-5.06-2.17-10.18-2.11-15.43
		c0.04-3.88-0.27-7.78,0.06-11.64c0.95-10.87,3.74-21.24,10.49-30.12c5.85-7.7,13.56-12.9,23.42-14.55
		c2.69-0.45,5.43-1.01,8.14-0.97c8.92,0.11,17.26,2.1,24.18,8.09c2.49,2.15,5.03,4.24,7.11,5.99c0-24.45,0-49.92,0-75.48
		c9.25,0,18.28,0,27.43,0C309.64,57.82,309.64,113.35,309.64,169.02z M236.64,117.83c0.47,3.66,0.67,7.38,1.47,10.98
		c1.43,6.4,4.3,12.09,9.72,16.25c8.04,6.18,18.54,5.5,25.84-0.87c6.55-5.73,9.13-13.38,9.57-21.7c0.21-4.02-0.28-8.1-0.64-12.13
		c-0.47-5.22-1.95-10.17-4.87-14.6c-2.46-3.73-5.88-6.3-10.29-7.55c-3.62-1.03-7.25-1.2-11.01-0.71
		c-8.28,1.07-13.7,5.48-16.65,13.01C237.59,106.06,236.84,111.85,236.64,117.83z"/>
	<path class="st0" d="M388.68,100.08c-8.67,0-17.23,0-26.32,0c0.61-3.86,0.99-7.63,1.82-11.3c1.17-5.15,3.74-9.69,7.42-13.53
		c3.25-3.38,7.29-5.77,11.66-7.47c5.09-1.98,10.4-3.17,15.89-3.47c3.26-0.18,6.53-0.74,9.78-0.61c7.23,0.28,14.45,0.7,21.44,2.98
		c11.61,3.8,18.77,11.53,21.36,23.16c0.9,4.02,1.38,8.21,1.4,12.32c0.13,21.55,0.06,43.11,0.06,64.66c0,0.68,0,1.35,0,2.17
		c-0.57,0.04-1.07,0.1-1.57,0.1c-7.54,0.01-15.08-0.03-22.62,0.04c-1.26,0.01-1.95-0.34-2.17-1.53c-0.44-2.35-0.88-4.71-1.32-7.09
		c-1.55,1.2-3.13,2.52-4.79,3.72c-4.41,3.2-9.45,4.99-14.74,6.25c-5.75,1.37-11.61,1.29-17.41,0.93c-7.78-0.48-15.19-2.54-21.15-7.8
		c-4.09-3.61-6.54-8.3-7.5-13.61c-1.3-7.23-0.71-14.37,1.71-21.34c2.15-6.19,6.36-10.68,12.1-13.79c5.93-3.22,12.42-4.8,19.06-5.85
		c6.51-1.03,13.05-1.89,19.52-3.13c2.9-0.55,5.78-1.58,8.45-2.85c5.28-2.52,5.32-11.65-0.01-14.87c-3.2-1.93-6.64-2.63-10.3-3.11
		c-4.03-0.52-7.88-0.07-11.62,1.16c-5.47,1.8-8.32,5.97-9.68,11.26C388.95,98.29,388.85,99.13,388.68,100.08z M425.74,119.79
		c-0.23-0.07-0.46-0.14-0.69-0.21c-3.23,2.36-7.05,3.2-10.83,4.11c-5.39,1.29-10.84,2.35-16.17,3.82c-3.4,0.94-6.51,2.62-8.63,5.63
		c-2,2.85-2.29,5.99-2.06,9.34c0.29,4.13,2.94,7.38,6.72,8.56c4.04,1.26,8.08,1.26,12.14,0.28c9.07-2.19,15.75-7.27,18.05-16.32
		C425.53,130.13,425.3,124.88,425.74,119.79z"/>
	<path class="st0" d="M132.22,169.01c-9.4,0-18.54,0-27.77,0c0-34.19,0-68.29,0-102.52c8.71,0,17.43,0,26.37,0
		c0,4.53,0,9.08,0,13.76c1.68-2.04,3.04-4.04,4.77-5.69c2.18-2.09,4.46-4.18,7.03-5.74c5.8-3.51,12.3-4.62,19.07-4.92
		c7.45-0.34,14.51,0.66,21.13,4.09c6.38,3.3,10.74,8.4,13.44,14.9c2.1,5.04,2.79,10.35,2.79,15.75c0.01,22.81,0,45.61,0,68.42
		c0,0.61,0,1.23,0,1.94c-9.4,0-18.66,0-28.2,0c0-0.61,0-1.26,0-1.91c0-21.1,0.04-42.2-0.04-63.3c-0.01-3.44-0.62-6.85-2.14-10.08
		c-1.7-3.63-4.78-5.36-8.44-6.13c-4.73-0.99-9.51-0.99-14.24,0.26c-5.95,1.57-9.97,5.14-12.05,10.83c-1.21,3.3-1.76,6.68-1.75,10.19
		c0.04,19.34,0.02,38.67,0.02,58.01C132.22,167.55,132.22,168.22,132.22,169.01z"/>
	<path class="st0" d="M269.65,29.28c0,8.28,0,16.45,0,24.71c-55.05,0-110.03,0-165.15,0c0-8.17,0-16.38,0-24.71
		C159.48,29.28,214.49,29.28,269.65,29.28z"/>
	<path class="st0" d="M64.45,66.45c9.27,0,18.41,0,27.64,0c0,34.18,0,68.28,0,102.52c-9.16,0-18.34,0-27.64,0
		C64.45,134.86,64.45,100.72,64.45,66.45z"/>
	<path class="st0" d="M349.68,169.02c-9.26,0-18.4,0-27.64,0c0-34.18,0-68.28,0-102.52c9.15,0,18.33,0,27.64,0
		C349.68,100.6,349.68,134.74,349.68,169.02z"/>
	<path class="st1" d="M318.95,39c-0.17-9.94,8.03-17.47,17.67-17.43c10.22,0.04,18.27,7.57,17.95,18.39
		c-0.26,8.93-8,16.72-17.89,16.72C326.78,56.67,318.69,48.8,318.95,39z"/>
	<path class="st2" d="M60.46,39c-0.17-9.94,8.03-17.47,17.67-17.43c10.22,0.04,18.27,7.57,17.95,18.39
		c-0.26,8.93-8,16.72-17.89,16.72C68.29,56.67,60.2,48.8,60.46,39z"/>
	<g>
		<path class="st0" d="M776.93,172.76V34.29c-5.11,1.46-17.2,2.69-23.28,2.63V16.42c13.72-1.98,27.22-8.07,33.39-13.65h20.34v169.99
			H776.93z"/>
	</g>
	<g>
		<path class="st0" d="M839.89,166.8c-7.26-4.68-13.03-11.23-17.3-19.63c-4.27-8.4-6.4-17.85-6.4-28.34
			c0-10.49,2.13-19.91,6.4-28.27c4.27-8.35,10.04-14.87,17.3-19.56c7.26-4.68,15.25-7.03,23.97-7.03s16.71,2.34,23.97,7.03
			c7.26,4.69,12.99,11.21,17.17,19.56c4.18,8.35,6.27,17.78,6.27,28.27c0,10.49-2.11,19.94-6.34,28.34
			c-4.23,8.4-9.95,14.95-17.17,19.63c-7.22,4.69-15.19,7.03-23.9,7.03S847.16,171.48,839.89,166.8z M881.63,141.44
			c4.44-5.7,6.67-13.24,6.67-22.61c0-9.47-2.22-17.04-6.67-22.69c-4.45-5.65-10.37-8.48-17.76-8.48c-7.48,0-13.45,2.8-17.89,8.4
			c-4.45,5.6-6.67,13.19-6.67,22.77c0,9.47,2.22,17.04,6.67,22.69c4.44,5.65,10.41,8.48,17.89,8.48
			C871.26,149.99,877.18,147.14,881.63,141.44z"/>
	</g>
	<g>
		<path d="M592.35,166.8c-7.26-4.68-13.03-11.23-17.3-19.63c-4.27-8.4-6.41-17.85-6.41-28.34c0-10.49,2.13-19.91,6.41-28.27
			c4.27-8.35,10.04-14.87,17.3-19.56c7.26-4.68,15.25-7.03,23.97-7.03c8.72,0,16.71,2.34,23.97,7.03
			c7.26,4.69,12.99,11.21,17.17,19.56c4.18,8.35,6.27,17.78,6.27,28.27c0,10.49-2.11,19.94-6.34,28.34
			c-4.23,8.4-9.95,14.95-17.17,19.63c-7.22,4.69-15.19,7.03-23.9,7.03C607.6,173.83,599.61,171.48,592.35,166.8z M634.08,141.44
			c4.44-5.7,6.67-13.24,6.67-22.61c0-9.47-2.22-17.04-6.67-22.69c-4.45-5.65-10.37-8.48-17.76-8.48c-7.48,0-13.45,2.8-17.89,8.4
			c-4.45,5.6-6.67,13.19-6.67,22.77c0,9.47,2.22,17.04,6.67,22.69c4.44,5.65,10.41,8.48,17.89,8.48
			C623.71,149.99,629.63,147.14,634.08,141.44z"/>
	</g>
	<polygon points="939.55,41.44 903.57,61.83 903.57,21.05 	"/>
	<rect x="816.88" y="28.85" width="86.69" height="25.18"/>
</g>
</svg>
