<svg xmlns="http://www.w3.org/2000/svg" xmlns:xlink="http://www.w3.org/1999/xlink" viewBox="0 0 1892.27 399.81"><defs><style>.cls-1{fill:url(#linear-gradient);}.cls-2{fill:url(#linear-gradient-2);}.cls-3{fill:url(#linear-gradient-3);}.cls-4{fill:#4f4f4f;}.cls-5{fill:url(#linear-gradient-4);}.cls-6{fill:url(#linear-gradient-7);}.cls-7{fill:#242769;}.cls-8{fill:#0077b2;}</style><linearGradient id="linear-gradient" x1="143.51" y1="195.24" x2="251.48" y2="387.29" gradientUnits="userSpaceOnUse"><stop offset="0" stop-color="#1a4796"/><stop offset="0.01" stop-color="#1a4695"/><stop offset="0.66" stop-color="#232c70"/><stop offset="1" stop-color="#262262"/></linearGradient><linearGradient id="linear-gradient-2" x1="81.41" y1="-79.21" x2="228.82" y2="161.63" gradientUnits="userSpaceOnUse"><stop offset="0" stop-color="#1fc3f3"/><stop offset="0.17" stop-color="#1eb5e8"/><stop offset="0.48" stop-color="#1d8fcc"/><stop offset="0.92" stop-color="#1b549f"/><stop offset="1" stop-color="#1a4796"/></linearGradient><linearGradient id="linear-gradient-3" x1="138.86" y1="197.86" x2="246.83" y2="389.91" xlink:href="#linear-gradient"/><linearGradient id="linear-gradient-4" x1="201.23" y1="302.64" x2="353.83" y2="311.98" gradientTransform="translate(-254 -51)" xlink:href="#linear-gradient-2"/><linearGradient id="linear-gradient-7" x1="9.16" y1="270.77" x2="117.12" y2="462.82" xlink:href="#linear-gradient"/></defs><g id="Layer_2" data-name="Layer 2"><g id="Layer_1-2" data-name="Layer 1"><path class="cls-1" d="M84.33,119.37H107.4V364.19H223.29v-28.3h-86V118.16c11.4.54,22.87.32,34.14,1.73,92.95,11.66,163.28,78.74,179.18,171,1.91,11.07,2.42,22.46,2.61,33.71.31,19-.14,37.94-.3,56.9,0,2.2-.2,4.39-.33,6.92H276.67c-.15-2.42-.4-4.6-.4-6.77,0-22.13.39-44.28-.2-66.39-.24-8.92-2.72-17.77-4.07-26.67-.7-4.63-3.06-6.08-7.83-6-22.13.27-44.26.12-66.39.12h-7.66V177.6c2.51.72,4.78,1.28,7,2,60.11,20.2,101.56,76.42,102.82,139.71.29,14.85,0,29.7,0,44.92h29c0-15.26,0-30.33,0-45.4,0-18-3.36-35.42-8.9-52.5C298.33,199.42,233.85,148,165.84,143.57c-1.5-.09-3,0-4.87,0v168h86.11v76.88H84.33ZM214.09,258.3h44.84c-11.55-18.86-25.87-33.4-44.84-44.8Z"/><path class="cls-2" d="M274.79,148.87c-28.88-27.93-76.88-38.44-117.35-42a432.4,432.4,0,0,0-72.15-.28c-1.68-12.69-.71-23.3,9.07-32.22,11-10,23.2-17.17,37.42-20.95,6-1.6,12.25-2.47,18.38-3.67-25.44-3.34-47.44,4.54-66.66,20.57-3.4,2.83-6,3.5-9.89,1.67-1.29-.6-2.6-1.16-3.93-1.71l-.27-.11c-1.91-.77-3.88-1.52-5.92-2.28l-.91-.34L50.2,62.82l-10.35-4-1.79-.68-13-5a.22.22,0,0,1,0-.41L156.76.94a13.61,13.61,0,0,1,9.89,0L299.77,53,248.13,74.26a13.53,13.53,0,0,0-8.38,12.54v19.68a2.7,2.7,0,0,0,1.08,2.16C264.94,126.86,274.5,148.2,274.79,148.87Z"/><path class="cls-3" d="M69.41,70.18,63.49,67.9C65.53,68.66,67.5,69.41,69.41,70.18Z"/><path class="cls-4" d="M67.05,346.63h1c1.88-70,3.75-140,5.64-210.44H50.86C56.28,206.64,61.67,276.64,67.05,346.63Z"/><path class="cls-4" d="M0,178.65c15.51,68,30.8,135.12,46.1,202.22l1-.24C38.36,313.06,29.6,245.5,20.77,177.35Z"/><path class="cls-4" d="M24.41,152.44c11.05,70.06,22,139.26,32.88,208.46l1-.17q-7.58-104-15.16-208.29Z"/><path class="cls-5" d="M67.05,346.63h1c1.88-70,3.75-140,5.64-210.44H50.86C56.28,206.64,61.67,276.64,67.05,346.63Z"/><path class="cls-5" d="M0,178.65c15.51,68,30.8,135.12,46.1,202.22l1-.24C38.36,313.06,29.6,245.5,20.77,177.35Z"/><path class="cls-5" d="M24.41,152.44c11.05,70.06,22,139.26,32.88,208.46l1-.17q-7.58-104-15.16-208.29Z"/><path class="cls-6" d="M84.37,351.78l0,36.63H45.61S82.64,384,84.37,351.78Z"/><path class="cls-7" d="M371.87,84.12h40.91V224h56.49l-3.81,32.1H371.87Z"/><path class="cls-7" d="M519.37,198.44c0,17.45,1.77,30.8,14.3,30.8,11.26,0,12.92-9,13.36-15.06h38.52c-1,9-5.09,44.37-52.68,44.37-46.09,0-53.63-34-53.63-70.4C479.24,143,498,120,533.67,120c41,0,52.75,26.81,52.75,63.84,0,4.56-.17,11.89-.34,14.65Zm27.38-24.67c0-13-.61-25.13-13.17-25.13-12.72,0-13.87,12.77-13.87,25.13Z"/><path class="cls-7" d="M704.15,223.09c0,9.15.62,26.28,1.05,33H668.81a59.77,59.77,0,0,1-1.59-11.62c-6.76,9-16.38,13.91-31,13.91-24.6,0-36.83-18.31-36.83-41.26,0-29.27,20.42-44,54.13-44,4,0,8.2,0,11,.17v-13c0-7.22-1.07-13.31-11-13.31-9.19,0-10.78,5.61-11.29,15.16h-37.8C605.06,138.49,617,120,655.22,120c32.28,0,48.93,12.54,48.93,40.15Zm-39.07-25.2a55.87,55.87,0,0,0-7.64-.33c-13.93,0-18.34,7.11-18.34,16.24,0,7.76,3.34,14.36,12,14.36,11.87,0,14-8.88,14-23.94Z"/><path class="cls-7" d="M768.36,246v56.15h-40.3V160.8c0-17.92-.09-30.42-.35-38.65h38.6a116.36,116.36,0,0,1,1.15,13.75c4.31-7.53,12-16,30.32-16,24.57,0,39.15,19.27,39.15,67.1,0,53.25-16.63,71.5-43.37,71.5C781.52,258.55,772.68,254,768.36,246Zm27.73-57.82c0-30.87-4.55-37.4-14.63-37.4-11.52,0-13.79,9.92-13.79,36.68,0,30,1.41,40.18,13.52,40.18C791.42,227.68,796.09,218.09,796.09,188.22Z"/><path class="cls-7" d="M894.38,219.28l-6.06,36.81H847.41l35.12-172H940l35.58,172h-42.5l-6.25-36.81Zm27.07-33.23c-4-25.09-7.94-53.08-10.19-68.89h-1.35c-1.74,16.49-6.09,43.79-10.3,68.89Z"/><path class="cls-7" d="M1092.57,76V216.24c0,18.27.19,32.84.45,39.85h-38.7a108.84,108.84,0,0,1-1.14-13.15c-5.07,9.9-14,15.44-30,15.44-26.59,0-39.51-21.17-39.51-70.59,0-44.62,15.13-67.84,44.68-67.84,13.68,0,21.08,4.75,23.9,9.59V76Zm-67.86,112.39c0,29.92,3.72,39.37,13.87,39.37,12,0,14.38-8.87,14.38-40.3,0-28.78-1.56-36.64-13.34-36.64C1030.18,150.82,1024.71,157.26,1024.71,188.39Z"/><path class="cls-7" d="M1116.07,163.58c0-26.29-.1-35.74-.36-41.43H1154a77.37,77.37,0,0,1,1.15,12.29c6.79-9.31,16.33-14.49,29.78-14.49,15.95,0,23.83,7.07,27.77,16.32,5.9-8.2,15.76-16.32,33.66-16.32,21.7,0,35,12.79,35,40.34v95.8H1241.8V164.86c0-8.14-2.59-14-10.67-14-9.27,0-12.4,6.45-12.4,19.55v85.72H1179v-91c0-9.69-3.58-14.11-10.76-14.11-9.08,0-12.39,5.79-12.39,19.79v85.31h-39.75Z"/><path class="cls-7" d="M1304.94,122.15h40.29V256.09h-40.29Zm.17-46.15h40.29v31.53h-40.29Z"/><path class="cls-7" d="M1398.74,214.53c.19,8.16,3.31,16.39,13.48,16.39,7.91,0,11.38-4.22,11.38-10.95,0-7.6-3.6-11.55-18.68-16.88-32.2-11.36-41.22-22-41.22-43.26,0-20.13,12.7-40.05,47.55-40.05,40.61,0,48.1,25.06,48.1,41.93h-36.3c0-6-.91-15.36-11.48-15.36-6.36,0-9.74,3.87-9.74,9.77,0,7,4.08,10.39,20,16,29.53,10.44,40.8,21.84,40.8,43.16,0,27-16.21,43.11-51.17,43.11-38,0-50.27-21.32-50.55-43.85Z"/><path class="cls-7" d="M1514,214.53c.19,8.16,3.31,16.39,13.48,16.39,7.92,0,11.38-4.22,11.38-10.95,0-7.6-3.6-11.55-18.68-16.88-32.2-11.36-41.22-22-41.22-43.26,0-20.13,12.7-40.05,47.56-40.05,40.6,0,48.1,25.06,48.1,41.93h-36.31c0-6-.91-15.36-11.47-15.36-6.37,0-9.75,3.87-9.75,9.77,0,7,4.08,10.39,20,16,29.54,10.44,40.81,21.84,40.81,43.16,0,27-16.21,43.11-51.17,43.11-38,0-50.27-21.32-50.55-43.85Z"/><path class="cls-7" d="M1595.22,122.15h40.29V256.09h-40.29Zm.17-46.15h40.29v31.53h-40.29Z"/><path class="cls-7" d="M1764.44,187.7c0,53.12-21.59,70.85-55.41,70.85-32.65,0-54.16-17.33-54.16-70.17,0-50.78,23.79-68.43,55.55-68.43C1743.35,120,1764.44,139.37,1764.44,187.7Zm-68.73.42c0,28.8,2.84,40.33,14.38,40.33,11,0,13.51-11.73,13.51-40.27,0-29.34-3.11-38-13.77-38S1695.71,159.5,1695.71,188.12Z"/><path class="cls-7" d="M1783.46,164.21c0-27.61,0-35.11-.26-42.06h38.7a98.07,98.07,0,0,1,1.14,12.27c4.33-6.62,13.34-14.64,30.17-14.64,23.49,0,35,14.44,35,40v96.35h-40.29V167c0-10.33-1.93-16.2-11.46-16.2-8.6,0-12.67,4.55-12.67,19.38v85.89h-40.3Z"/><path class="cls-8" d="M545.23,372.88l-24.13-81.3h13.82c5.59,19.72,16.6,56.91,18.33,68.64h.11c2.26-12.34,13.76-49.13,19.82-68.64H586.1c5.48,18.16,17.53,58.64,19.34,68.27h.16C608.08,347,619.31,310.4,625,291.58H638.2l-25.78,81.3H598.11c-5.53-18.35-17.1-56.91-19.23-67h-.12c-2.09,11.19-13.11,46.46-19.46,67Z"/><path class="cls-8" d="M652.51,346.73c.56,10.19,7.35,17.74,18.15,17.74,8.39,0,12.88-3.34,15.7-8.49h12.47c-3.15,9.08-11.32,18.5-28.65,18.5-21.09,0-30.15-15.4-30.15-30.61C640,326.54,651.31,313,670,313c21.74,0,29.67,16.07,29.67,30.53,0,1.11,0,1.94,0,3.25Zm34.24-8.64c-.46-6.33-3.75-15.54-16.86-15.54-11.13,0-16.29,6.93-17.16,15.54Z"/><path class="cls-8" d="M745.43,330.41c0-5.26,0-10.59-.11-15.86h12.15c.21,1.81.43,8,.43,12.77,3.56-8.63,11.49-14.47,22.77-14.32v12c-13-.17-22.77,7.21-22.77,24.26v23.6H745.43Z"/><path class="cls-8" d="M790.64,286.87h12.47v13.55H790.64Zm0,27.68h12.47v58.33H790.64Z"/><path class="cls-8" d="M827.45,355.16c1.89,6.23,7.19,9.94,16.84,9.94,10.15,0,13.59-3.55,13.59-8.16s-2.76-7.37-16.48-9.1c-20.41-2.7-24-10.11-24-17.34,0-7.85,6-17.55,24.61-17.55,19.8,0,25.71,10.25,26.36,17.57H855.94c-.84-3.32-3.1-8.4-14.53-8.4-9.63,0-11.61,4.17-11.61,7.19,0,3.88,2.47,6.21,14.9,7.94,21.81,3.1,25.57,10.15,25.57,18.67,0,10.52-7.81,18.56-26.77,18.56-16.34,0-26.63-7.07-28.54-19.32Z"/><path class="cls-8" d="M892.06,346.73c.57,10.19,7.35,17.74,18.15,17.74,8.39,0,12.88-3.34,15.7-8.49h12.47c-3.15,9.08-11.32,18.5-28.64,18.5-21.1,0-30.16-15.4-30.16-30.61,0-17.33,11.28-30.92,29.92-30.92,21.74,0,29.67,16.07,29.67,30.53,0,1.11,0,1.94,0,3.25Zm34.24-8.64c-.46-6.33-3.75-15.54-16.86-15.54-11.13,0-16.29,6.93-17.16,15.54Z"/><path class="cls-8" d="M984.93,286.87H997.4v36c2.85-4.26,8.73-9.95,20.57-9.95,15.79,0,27.46,12.63,27.46,29.72,0,19.65-12.1,31.81-28.25,31.81-11.89,0-17.26-5.08-20.13-10.05-.06,2.52-.11,6.56-.29,8.45H984.82c.11-7.64.11-13.31.11-19.91Zm47.65,56.28c0-9.53-5.19-19.75-17.58-19.75s-18,8.65-18,20.23c0,12.29,6.8,20.3,18,20.3C1027.38,363.93,1032.58,354.1,1032.58,343.15Z"/><path class="cls-8" d="M1066.24,314.55c11.53,27.81,17.53,43.62,19.09,48.38h.21c1.88-5.78,7.35-22.2,17.45-48.38h12.86l-21.49,54.08c-10,25.28-13.54,31.18-29.09,31.18a48.77,48.77,0,0,1-7.76-.63v-10.9a52.29,52.29,0,0,0,6.13.41c7.7,0,10.36-3.09,15-13.26l-26.11-60.88Z"/><path class="cls-8" d="M1158.8,372.88v-86h12.47v86Z"/><path class="cls-8" d="M1188.73,286.87h12.47v13.55h-12.47Zm0,27.68h12.47v58.33h-12.47Z"/><path class="cls-8" d="M1223.49,372.88V324.35h-10.42v-9.8h10.42v-7.16c0-13.48,6-21.39,19.6-21.39a27.6,27.6,0,0,1,6.87.64v10.1a24.35,24.35,0,0,0-4.71-.43c-7.18,0-9.24,3.08-9.24,11.53v6.71h12.91v9.8H1236v48.53Z"/><path class="cls-8" d="M1250.21,314.55h11V296.17h12.52v18.38h14.44v9.8h-14.44v30.14c0,6.27,1.51,9.07,7.54,9.07a24.23,24.23,0,0,0,5.42-.47v9.18a30,30,0,0,1-9.45,1.13c-12.33,0-16-5.6-16-17v-32h-11Z"/><path class="cls-8" d="M1300.06,286.87h12.47v13.55h-12.47Zm0,27.68h12.47v58.33h-12.47Z"/><path class="cls-8" d="M1330,329.26c0-4.92,0-10.4-.11-14.71H1342c.23,1.92.39,6.44.44,10,2.5-5.22,8.26-11.6,20.19-11.6,13.52,0,22.1,8.55,22.1,24.31v35.62h-12.58V339.47c0-8.88-3.32-16.07-13.3-16.07-11,0-16.36,8.46-16.36,21.24v28.24H1330Z"/><path class="cls-8" d="M1458.51,365.52c0,21.71-7.55,34.29-31.18,34.29-23,0-27.58-13.47-28.65-20.21h12.69c1.6,5.39,5.49,10.24,16.65,10.24,15.44,0,18.18-10.17,18.18-23.53v-3c-3.42,6.3-9.18,10.49-20.81,10.49-16.16,0-27.28-13-27.28-29.39,0-18.53,13.11-31.48,28.67-31.48,12.77,0,17.77,5.76,19.42,10,0-2.64.16-6.82.34-8.39h12.08c-.11,5.66-.11,11.33-.11,17Zm-47.61-21.59c0,11.11,7,19.47,17.7,19.47,11.23,0,17.88-7.09,17.88-20.11,0-12.58-6.26-19.89-17.31-19.89C1416.86,323.4,1410.9,333.38,1410.9,343.93Z"/><path class="cls-8" d="M1566.47,343.69c0,16.63-10.68,30.79-31.29,30.79-19.72,0-30.49-14.59-30.49-30.73,0-16.54,11.35-30.8,31.09-30.8C1556.07,313,1566.47,328.5,1566.47,343.69Zm-49,.06c0,10.58,6.42,20.55,18.18,20.55,12.23,0,18-9.4,18-20.39s-6.24-20.78-18.25-20.78S1517.43,332.71,1517.43,343.75Z"/><path class="cls-8" d="M1573,314.55h11V296.17h12.53v18.38H1611v9.8h-14.43v30.14c0,6.27,1.5,9.07,7.53,9.07a24.32,24.32,0,0,0,5.43-.47v9.18a30.11,30.11,0,0,1-9.46,1.13c-12.32,0-16-5.6-16-17v-32h-11Z"/><path class="cls-8" d="M1634.88,286.87v37.39c2.06-4,7.22-11.31,20.51-11.31s21.78,8.18,21.78,24.77v35.16H1664.6V339.46c0-9.24-3.09-16.06-13.12-16.06-11.18,0-16.55,9-16.55,21v28.5h-12.47v-86Z"/><path class="cls-8" d="M1703.12,346.73c.57,10.19,7.36,17.74,18.16,17.74,8.38,0,12.88-3.34,15.7-8.49h12.47c-3.16,9.08-11.33,18.5-28.65,18.5-21.09,0-30.16-15.4-30.16-30.61,0-17.33,11.28-30.92,29.93-30.92,21.74,0,29.67,16.07,29.67,30.53,0,1.11,0,1.94,0,3.25Zm34.24-8.64c-.46-6.33-3.74-15.54-16.85-15.54-11.13,0-16.29,6.93-17.16,15.54Z"/><path class="cls-8" d="M1763.38,330.41c0-5.26,0-10.59-.11-15.86h12.14c.22,1.81.44,8,.44,12.77,3.56-8.63,11.48-14.47,22.76-14.32v12c-13-.17-22.76,7.21-22.76,24.26v23.6h-12.47Z"/><path class="cls-8" d="M1817.31,355.16c1.89,6.23,7.19,9.94,16.84,9.94,10.16,0,13.59-3.55,13.59-8.16s-2.76-7.37-16.48-9.1c-20.41-2.7-24-10.11-24-17.34,0-7.85,6-17.55,24.61-17.55,19.8,0,25.71,10.25,26.36,17.57H1845.8c-.84-3.32-3.1-8.4-14.52-8.4-9.64,0-11.62,4.17-11.62,7.19,0,3.88,2.47,6.21,14.9,7.94,21.81,3.1,25.57,10.15,25.57,18.67,0,10.52-7.81,18.56-26.77,18.56-16.34,0-26.63-7.07-28.54-19.32Z"/><path class="cls-8" d="M1880.07,343.84l-1.22-39V291.58h13.42v13.21l-1.22,39Zm-.58,29V354.82h12.09v18.06Z"/></g></g></svg>