<svg id="Layer_1" data-name="Layer 1" xmlns="http://www.w3.org/2000/svg" xmlns:xlink="http://www.w3.org/1999/xlink" viewBox="0 0 975.82 1072.64"><defs><style>.cls-1{fill:url(#linear-gradient);}.cls-2{fill:url(#linear-gradient-2);}.cls-3{fill:url(#linear-gradient-3);}.cls-4{fill:#4f4f4f;}.cls-5{fill:url(#linear-gradient-4);}.cls-6{fill:url(#linear-gradient-7);}</style><linearGradient id="linear-gradient" x1="448.42" y1="542.87" x2="746.58" y2="1073.25" gradientUnits="userSpaceOnUse"><stop offset="0" stop-color="#1a4796"/><stop offset="0.01" stop-color="#1a4695"/><stop offset="0.66" stop-color="#232c70"/><stop offset="1" stop-color="#262262"/></linearGradient><linearGradient id="linear-gradient-2" x1="276.91" y1="-215.07" x2="684.01" y2="450.05" gradientUnits="userSpaceOnUse"><stop offset="0" stop-color="#1fc3f3"/><stop offset="0.17" stop-color="#1eb5e8"/><stop offset="0.48" stop-color="#1d8fcc"/><stop offset="0.92" stop-color="#1b549f"/><stop offset="1" stop-color="#1a4796"/></linearGradient><linearGradient id="linear-gradient-3" x1="435.58" y1="550.09" x2="733.74" y2="1080.46" xlink:href="#linear-gradient"/><linearGradient id="linear-gradient-4" x1="-93.65" y1="698.6" x2="327.78" y2="724.41" xlink:href="#linear-gradient-2"/><linearGradient id="linear-gradient-7" x1="77.38" y1="751.46" x2="375.54" y2="1281.83" xlink:href="#linear-gradient"/></defs><path class="cls-1" d="M285,333.33h63.74v676.1h320V931.28H431.28V330c31.5,1.48,63.18.87,94.29,4.77C782.25,367,976.5,552.23,1020.4,807c5.27,30.55,6.69,62,7.21,93.09.87,52.36-.4,104.76-.83,157.14-.06,6.06-.56,12.12-.9,19.1H816.15c-.42-6.68-1.11-12.69-1.11-18.7-.07-61.12,1.08-122.27-.55-183.35-.66-24.62-7.5-49.06-11.22-73.63-1.94-12.8-8.46-16.82-21.64-16.66-61.11.75-122.23.32-183.35.32H577.14V494.16c6.92,2,13.2,3.53,19.31,5.58,166,55.79,280.45,211,283.93,385.85.82,41,.13,82,.13,124h80c0-42.16,0-83.77,0-125.39,0-49.71-9.28-97.82-24.58-145C876,554.4,697.91,412.49,510.09,400.18c-4.16-.27-8.35,0-13.47,0V864H734.43v212.31H285ZM643.33,717H767.16c-31.9-52.08-71.43-92.23-123.83-123.71Z" transform="translate(-52.09 -3.68)"/><path class="cls-2" d="M811,414.8c-79.76-77.14-212.33-106.14-324.1-115.95-109.62-9.66-199.23-.79-199.23-.79-4.64-35-2-64.34,25-89C343,181.51,376.76,161.67,416,151.23c16.66-4.42,33.84-6.81,50.75-10.14-70.25-9.21-131,12.54-184.07,56.81-9.39,7.83-16.47,9.66-27.32,4.61-3.56-1.65-7.19-3.18-10.86-4.72l-.75-.3c-5.27-2.13-10.7-4.19-16.35-6.29l-2.51-.93-34.17-13.1-28.6-11-4.94-1.87-36-13.77a.6.6,0,0,1,0-1.12L485,6.27a37.58,37.58,0,0,1,27.33,0L880,150l-142.6,58.77a37.36,37.36,0,0,0-23.17,34.62v54.37a7.51,7.51,0,0,0,3,6C783.76,354,810.16,413,811,414.8Z" transform="translate(-52.09 -3.68)"/><path class="cls-3" d="M243.77,197.49l-16.35-6.29C233.07,193.3,238.5,195.36,243.77,197.49Z" transform="translate(-52.09 -3.68)"/><path class="cls-4" d="M237.26,960.94l2.74,0c5.18-193.32,10.36-386.64,15.57-581.16h-63C207.52,574.35,222.39,767.65,237.26,960.94Z" transform="translate(-52.09 -3.68)"/><path class="cls-4" d="M52.09,497.05C94.91,684.87,137.16,870.19,179.4,1055.5l2.8-.67C158,868.24,133.85,681.65,109.46,493.45Z" transform="translate(-52.09 -3.68)"/><path class="cls-4" d="M119.51,424.66c30.51,193.47,60.65,384.58,90.8,575.69l2.8-.46q-20.9-287.29-41.85-575.23Z" transform="translate(-52.09 -3.68)"/><path class="cls-5" d="M237.26,960.94l2.74,0c5.18-193.32,10.36-386.64,15.57-581.16h-63C207.52,574.35,222.39,767.65,237.26,960.94Z" transform="translate(-52.09 -3.68)"/><path class="cls-5" d="M52.09,497.05C94.91,684.87,137.16,870.19,179.4,1055.5l2.8-.67C158,868.24,133.85,681.65,109.46,493.45Z" transform="translate(-52.09 -3.68)"/><path class="cls-5" d="M119.51,424.66c30.51,193.47,60.65,384.58,90.8,575.69l2.8-.46q-20.9-287.29-41.85-575.23Z" transform="translate(-52.09 -3.68)"/><path class="cls-6" d="M285.09,975.16,285,1076.32H178.06S280.31,1064,285.09,975.16Z" transform="translate(-52.09 -3.68)"/></svg>